<svg width="42" height="32" viewBox="0 0 42 32" fill="none" xmlns="http://www.w3.org/2000/svg">
<path d="M1.02295 29.5691C0.960167 29.386 0.928098 29.1937 0.927979 29.0001V2.03418C0.928244 1.56996 1.11281 1.12479 1.44116 0.796631C1.76951 0.468471 2.21473 0.28418 2.67896 0.28418H14.4871C15.0601 0.284308 15.6131 0.494909 16.041 0.876099L19.2271 3.71912C19.6548 4.10055 20.2079 4.31131 20.781 4.31116H34.073C34.5372 4.31116 34.9824 4.49545 35.3108 4.82361C35.6391 5.15177 35.8237 5.59694 35.824 6.06116V8.34412L1.02295 29.5691Z" fill="#ED9E00"/>
<path d="M3.87891 20.0591V7.20618C3.87891 7.02053 3.95271 6.84246 4.08398 6.71118C4.21526 6.57991 4.39345 6.5061 4.5791 6.5061H32.5791C32.7648 6.5061 32.9427 6.57991 33.074 6.71118C33.2052 6.84246 33.2791 7.02053 33.2791 7.20618V18.2861L3.87891 20.0591Z" fill="#E3E3E2"/>
<path d="M4.50806 20.868V8.01501C4.50806 7.82936 4.58186 7.6513 4.71313 7.52002C4.84441 7.38874 5.02236 7.31494 5.20801 7.31494H33.208C33.3937 7.31494 33.5716 7.38874 33.7029 7.52002C33.8342 7.6513 33.908 7.82936 33.908 8.01501V19.095L4.50806 20.868Z" fill="white"/>
<path d="M41.2371 10.5631L35.6571 30.6401C35.5507 31.0225 35.322 31.3596 35.0059 31.5997C34.6899 31.8399 34.304 31.97 33.9071 31.9701H2.7452C2.46543 31.97 2.18946 31.9054 1.9388 31.7811C1.68815 31.6569 1.46935 31.4764 1.29989 31.2538C1.13042 31.0312 1.01481 30.7724 0.961753 30.4977C0.908692 30.223 0.919611 29.9399 0.99398 29.6702L5.64706 12.7051C5.74849 12.3351 5.96856 12.0088 6.27352 11.7761C6.57848 11.5434 6.95144 11.4173 7.33504 11.4171H22.2801C22.6969 11.4173 23.1061 11.3058 23.4652 11.0941L27.5902 8.66406C27.9492 8.45235 28.3582 8.34081 28.775 8.34106H39.5501C39.8203 8.34098 40.0869 8.40348 40.3289 8.52356C40.571 8.64364 40.7818 8.81813 40.9452 9.03333C41.1085 9.24852 41.22 9.49864 41.2706 9.76404C41.3212 10.0294 41.3098 10.3029 41.2371 10.5631Z" fill="#FFC200"/>
</svg>
